<?xml version="1.0" encoding="utf-8"?>
<svg version="1.1" xmlns="http://www.w3.org/2000/svg" x="0px" y="0px" viewBox="0 0 256 256" fill="#000">
<path d="M193.6,10H62.4c-21.7,0-39.3,17.7-39.3,39.3v157.3c0,21.7,17.7,39.3,39.3,39.3h131.1c21.7,0,39.3-17.7,39.3-39.3V49.3C232.9,27.7,215.3,10,193.6,10z M88.6,36.2h78.7v13.1c0,7.2-5.9,13.1-13.1,13.1h-52.5c-7.2,0-13.1-5.9-13.1-13.1L88.6,36.2L88.6,36.2z M206.7,206.7c0,7.2-5.9,13.1-13.1,13.1H62.4c-7.2,0-13.1-5.9-13.1-13.1V49.3c0-7.2,5.9-13.1,13.1-13.1h13.1c0,3.4,0,7.9,0,13.1c0,14.4,11.8,26.2,26.2,26.2h52.5c14.4,0,26.2-11.8,26.2-26.2c0-5.2,0-9.7,0-13.1h13.1c7.2,0,13.1,5.9,13.1,13.1V206.7L206.7,206.7z"/>
<path d="M180.4,193.6H75.5c-3.6,0-6.6-2.9-6.6-6.6c0-3.6,2.9-6.5,6.6-6.5h104.9c3.6,0,6.6,2.9,6.6,6.5C187,190.6,184.1,193.6,180.4,193.6z"/>
<path d="M180.4,154.2H75.5c-3.6,0-6.6-2.9-6.6-6.6c0-3.6,2.9-6.6,6.6-6.6h104.9c3.6,0,6.6,2.9,6.6,6.6C187,151.3,184.1,154.2,180.4,154.2z"/>
<path d="M180.4,114.9H75.5c-3.6,0-6.6-2.9-6.6-6.6c0-3.6,2.9-6.6,6.6-6.6h104.9c3.6,0,6.6,2.9,6.6,6.6C187,112,184.1,114.9,180.4,114.9z"/>
</svg>
