<?xml version="1.0" encoding="utf-8"?>
<svg version="1.1" xmlns="http://www.w3.org/2000/svg" xmlns:xlink="http://www.w3.org/1999/xlink" width="1em" height="1em" viewBox="0 0 256 256">
<path fill="#888" d="M109.8,51.6c-9.9,20.1-18.2,36.8-18.6,37.1c-0.4,0.4-18.5,3.3-40.4,6.4c-21.8,3.2-40.1,5.9-40.6,6.1c-1,0.4,0.4,1.8,42.3,42.7l15.9,15.5L61.4,200c-3.8,22.3-6.8,40.7-6.6,40.8c0.2,0.1,16.6-8.4,36.5-18.8c19.8-10.4,36.3-18.9,36.7-18.9s16.9,8.5,36.7,18.9c19.8,10.4,36.2,18.9,36.5,18.8c0.2-0.1-2.7-18.5-6.6-40.8l-7-40.6l15.9-15.5c41.1-40,43.3-42.2,42.3-42.7c-0.5-0.2-18.8-3-40.6-6.1c-21.8-3.1-40-6-40.4-6.4c-0.4-0.4-8.7-17.1-18.6-37.1c-9.9-20.1-18-36.5-18.2-36.5S119.6,31.6,109.8,51.6z"/>
</svg>
